<?xml version="1.0" encoding="UTF-8"?>
<!-- Generator: visioncortex VTracer 0.6.3 -->
<svg version="1.1" xmlns="http://www.w3.org/2000/svg" width="1280" height="253">
<path d="M0 0 C2.26 -0 4.52 -0.02 6.78 -0.04 C35.71 -0.15 62.33 10.92 84.53 29.19 C85.41 29.91 86.28 30.63 87.19 31.37 C111.27 52.13 125.64 81.84 129.53 113.19 C130.64 129.17 129.81 144.74 125.53 160.19 C125.31 160.96 125.1 161.74 124.88 162.54 C115.74 194.55 93.53 221.88 64.53 238.19 C45.28 248.34 26.23 253.37 4.49 253.37 C2.3 253.37 0.11 253.39 -2.08 253.41 C-35.44 253.55 -65.31 238.76 -89.16 215.94 C-112.12 192.23 -124.66 161.94 -124.66 129.05 C-124.66 127.02 -124.68 124.99 -124.7 122.96 C-124.84 89.39 -110.17 59.28 -87.1 35.44 C-63.19 12.34 -33.16 -0 0 0 Z M-21.47 8.19 C-22.56 8.45 -23.64 8.72 -24.76 9 C-38.02 12.53 -50.22 17.24 -61.47 25.19 C-62.44 25.86 -63.41 26.54 -64.42 27.23 C-71.42 32.18 -71.42 32.18 -77.47 38.19 C-77.47 38.85 -77.47 39.51 -77.47 40.19 C-78.05 40.42 -78.63 40.66 -79.23 40.91 C-94.07 49.37 -103.26 74.81 -107.47 90.19 C-107.89 91.48 -108.3 92.77 -108.72 94.06 C-109.55 97.53 -109.62 100.63 -109.47 104.19 C-105.96 102.56 -102.89 100.51 -99.72 98.31 C-98.89 97.74 -98.89 97.74 -98.04 97.15 C-94.72 94.83 -91.47 92.44 -88.27 89.96 C-87.57 89.42 -86.86 88.87 -86.14 88.31 C-84.76 87.25 -83.39 86.17 -82.03 85.08 C-75.37 79.93 -75.37 79.93 -70.47 80.19 C-67.79 81.53 -65.55 83.31 -63.22 85.19 C-61.89 86.21 -60.55 87.24 -59.21 88.27 C-58.57 88.77 -57.93 89.28 -57.26 89.8 C-54.26 92.12 -51.14 94.26 -48.01 96.41 C-46.02 97.8 -44.08 99.22 -42.15 100.68 C-41.57 101.11 -40.99 101.53 -40.4 101.97 C-39.26 102.8 -38.14 103.65 -37.02 104.52 C-35.29 105.84 -35.29 105.84 -32.47 107.19 C-27.9 106.35 -24.36 103.07 -20.72 100.31 C-19.4 99.32 -18.08 98.34 -16.76 97.36 C-16.07 96.84 -15.38 96.33 -14.66 95.8 C-10.11 92.45 -5.47 89.22 -0.84 85.98 C-0.16 85.5 0.53 85.02 1.24 84.52 C1.85 84.09 2.46 83.67 3.09 83.23 C4.51 82.26 4.51 82.26 5.53 81.19 C8.71 80.79 10.22 81 13 82.65 C13.86 83.32 14.71 83.99 15.59 84.69 C19.46 87.63 23.34 90.45 27.4 93.12 C32.93 96.77 38.38 100.52 43.81 104.3 C47.46 107.2 47.46 107.2 51.78 108.15 C55.68 106.78 58.34 104.4 61.47 101.75 C67.09 97.11 72.8 92.73 78.78 88.57 C81.57 86.63 84.13 84.64 86.62 82.34 C89.53 80.19 89.53 80.19 91.92 80.06 C95.67 81.68 98.88 83.9 102.22 86.25 C106.51 89.72 106.51 89.72 111.53 91.19 C108.96 75.33 100.99 59.45 90.53 47.19 C89.87 47.19 89.21 47.19 88.53 47.19 C88.3 46.63 88.07 46.08 87.84 45.51 C77.99 28 52.8 15.17 34.37 9.96 C16.73 5.3 -3.62 3.64 -21.47 8.19 Z M-77.72 98.06 C-78.62 98.7 -79.51 99.34 -80.43 100 C-81.43 100.72 -82.44 101.44 -83.47 102.19 C-84.59 102.98 -85.7 103.77 -86.82 104.56 C-99.17 112.76 -99.17 112.76 -110.47 122.19 C-111.29 131.18 -109.71 139.51 -107.47 148.19 C-107.2 149.25 -106.94 150.31 -106.66 151.4 C-101.81 168.86 -91.95 185.09 -79.47 198.19 C-78.81 198.19 -78.15 198.19 -77.47 198.19 C-77.24 198.76 -77.01 199.33 -76.78 199.92 C-67.56 215.9 -42.34 224.53 -25.47 229.19 C-24.83 229.37 -24.19 229.55 -23.52 229.73 C-7.78 233.95 10.71 233.64 26.53 230.19 C27.55 229.97 28.57 229.75 29.63 229.53 C48.65 225.12 65.3 215.41 79.53 202.19 C73.78 197.56 67.92 193.13 61.87 188.91 C60.99 188.3 60.12 187.69 59.21 187.06 C58.33 186.44 57.44 185.82 56.53 185.19 C36.87 171.45 36.87 171.45 27.69 164.88 C17 157.22 6.25 149.66 -4.56 142.19 C-11.18 137.62 -17.75 132.99 -24.28 128.31 C-29.81 124.35 -35.38 120.47 -40.98 116.61 C-45.06 113.79 -49.11 110.92 -53.16 108.06 C-54.24 107.29 -54.24 107.29 -55.35 106.51 C-58.48 104.31 -61.6 102.09 -64.71 99.86 C-65.6 99.23 -66.49 98.59 -67.41 97.94 C-68.16 97.39 -68.91 96.85 -69.69 96.29 C-73.16 94.14 -74.69 95.88 -77.72 98.06 Z M86.52 97.9 C85.76 98.51 85 99.11 84.22 99.73 C83.43 100.38 82.65 101.02 81.84 101.69 C80.3 102.92 78.75 104.16 77.21 105.4 C76.44 106.02 75.68 106.64 74.9 107.28 C71.15 110.3 67.34 113.24 63.53 116.19 C70.43 123.8 79.46 129.2 87.98 134.82 C92.62 137.89 97.19 141.04 101.78 144.19 C102.64 144.77 103.5 145.36 104.38 145.97 C106.43 147.37 108.48 148.78 110.53 150.19 C116.39 141.39 115.58 128.37 115.84 118.19 C115.88 116.95 115.92 115.71 115.96 114.44 C115.79 111.21 115.79 111.21 114.04 109.1 C110.48 106.38 106.8 103.91 103.03 101.5 C102.27 101 101.51 100.5 100.73 99.99 C99.99 99.51 99.26 99.04 98.5 98.55 C97.5 97.9 97.5 97.9 96.48 97.25 C92.16 94.9 90.41 94.75 86.52 97.9 Z M2.28 98.94 C1.42 99.56 0.56 100.19 -0.32 100.83 C-1.36 101.61 -2.4 102.38 -3.47 103.19 C-4.14 103.68 -4.81 104.18 -5.5 104.69 C-10.17 108.17 -14.82 111.67 -19.47 115.19 C-15.67 119.24 -11.65 122.3 -7.03 125.37 C-5.6 126.34 -4.17 127.31 -2.74 128.28 C-2.02 128.77 -1.3 129.25 -0.57 129.75 C2.56 131.89 5.64 134.1 8.72 136.31 C14.12 140.19 19.56 143.99 25.04 147.76 C30.58 151.6 36.07 155.5 41.58 159.39 C46.22 162.67 50.87 165.93 55.53 169.19 C61.83 173.59 68.12 178.01 74.4 182.44 C75.14 182.96 75.88 183.47 76.64 184.01 C77.34 184.51 78.05 185 78.77 185.51 C79.44 185.98 80.1 186.45 80.78 186.93 C82.15 187.92 83.48 188.97 84.79 190.04 C86.74 191.55 86.74 191.55 90.53 191.19 C96.94 183.94 102.82 174.08 106.53 165.19 C105.34 161.63 104.51 161.22 101.47 159.19 C100.56 158.57 99.65 157.96 98.72 157.33 C97.67 156.62 96.61 155.91 95.53 155.19 C93.66 153.9 91.79 152.61 89.92 151.32 C85.17 148.05 80.41 144.79 75.65 141.53 C67.53 135.96 59.45 130.33 51.39 124.67 C44.03 119.51 36.6 114.44 29.15 109.4 C23.49 105.56 17.94 101.63 12.55 97.41 C8.42 94.91 5.78 96.37 2.28 98.94 Z " fill="#FEFEFE" transform="translate(124.470703125,-0.185302734375)"/>
<path d="M0 0 C0.7 -0.01 1.41 -0.01 2.13 -0.02 C4.48 -0.04 6.83 -0.05 9.18 -0.06 C9.98 -0.07 10.79 -0.07 11.62 -0.07 C15.9 -0.09 20.18 -0.11 24.46 -0.12 C28.83 -0.13 33.21 -0.16 37.59 -0.2 C40.99 -0.23 44.39 -0.24 47.78 -0.24 C49.39 -0.25 51 -0.26 52.61 -0.28 C69.74 -0.46 88.64 1.67 101.65 13.99 C102.89 15.36 104.1 16.75 105.27 18.18 C106.09 19.16 106.09 19.16 106.92 20.16 C121.4 39.67 119.69 68.15 119.27 91.18 C119.26 91.88 119.25 92.58 119.23 93.3 C119.04 101.19 117.93 108.82 116.46 116.55 C116.31 117.37 116.15 118.19 116 119.04 C114.81 124.82 112.85 129.88 110.27 135.18 C109.91 135.93 109.55 136.69 109.18 137.47 C105.89 144.32 105.89 144.32 103.27 147.18 C102.61 147.18 101.95 147.18 101.27 147.18 C101.05 147.76 100.83 148.35 100.6 148.95 C98.87 151.85 96.94 152.98 94.08 154.74 C92.7 155.61 92.7 155.61 91.29 156.49 C77.77 164.03 63.1 164.64 47.99 164.51 C46.41 164.5 44.82 164.5 43.23 164.5 C39.94 164.49 36.65 164.48 33.36 164.46 C29.13 164.43 24.91 164.42 20.69 164.41 C17.43 164.41 14.16 164.4 10.9 164.39 C9.34 164.38 7.78 164.38 6.22 164.37 C4.06 164.37 1.9 164.35 -0.26 164.34 C-1.49 164.33 -2.72 164.32 -3.98 164.32 C-6.73 164.18 -6.73 164.18 -7.73 163.18 C-7.83 161.09 -7.85 159 -7.86 156.91 C-7.86 156.25 -7.86 155.59 -7.86 154.91 C-7.86 152.67 -7.86 150.44 -7.86 148.21 C-7.86 146.61 -7.86 145.02 -7.86 143.42 C-7.87 139.08 -7.87 134.74 -7.86 130.4 C-7.86 125.86 -7.86 121.33 -7.86 116.79 C-7.87 109.18 -7.86 101.56 -7.86 93.94 C-7.85 85.12 -7.86 76.31 -7.86 67.49 C-7.87 59.93 -7.87 52.37 -7.86 44.81 C-7.86 40.29 -7.86 35.77 -7.86 31.25 C-7.87 27.01 -7.87 22.76 -7.86 18.51 C-7.86 16.95 -7.86 15.38 -7.86 13.82 C-7.86 11.69 -7.86 9.57 -7.86 7.44 C-7.86 6.25 -7.85 5.06 -7.85 3.83 C-7.61 -1.3 -4.47 0.03 0 0 Z M27.27 30.18 C27.27 64.5 27.27 98.82 27.27 134.18 C53.98 135.6 53.98 135.6 75.08 124.8 C84.39 113.63 83.78 96.14 83.72 82.41 C83.71 79.75 83.74 77.09 83.77 74.43 C83.82 61.75 83.64 46.6 74.76 36.59 C63.32 25.73 39.82 30.18 27.27 30.18 Z " fill="#FEFEFE" transform="translate(313.728515625,45.822998046875)"/>
<path d="M0 0 C10.89 0 21.78 0 33 0 C34.88 1.88 34.12 4.59 34.12 7.09 C34.12 8.4 34.12 8.4 34.11 9.74 C34.11 10.66 34.11 11.58 34.11 12.52 C34.11 15.57 34.11 18.61 34.1 21.66 C34.1 23.77 34.09 25.87 34.09 27.98 C34.09 33.53 34.08 39.09 34.07 44.64 C34.06 50.31 34.05 55.97 34.05 61.63 C34.04 72.76 34.02 83.88 34 95 C35.63 94.55 37.25 94.09 38.87 93.62 C39.78 93.36 40.68 93.11 41.62 92.84 C44.66 91.77 45.71 90.7 47.12 87.81 C47.59 86.92 48.05 86.03 48.52 85.12 C49.01 84.09 49.5 83.06 50 82 C50.6 80.79 51.21 79.59 51.82 78.38 C53.18 75.71 54.51 73.02 55.84 70.34 C58.13 65.71 60.52 61.13 62.94 56.56 C63.33 55.82 63.72 55.08 64.12 54.32 C66.88 49.12 66.88 49.12 68 48 C70.74 47.91 73.45 47.88 76.19 47.9 C77.01 47.9 77.83 47.91 78.68 47.91 C81.3 47.91 83.93 47.92 86.56 47.94 C88.34 47.94 90.12 47.95 91.9 47.95 C96.26 47.96 100.63 47.98 105 48 C104.21 52.7 102.34 56.08 99.81 60.06 C96.37 65.64 93.26 71.27 90.39 77.17 C87.54 82.96 84.49 88.65 81.03 94.11 C80.38 95.15 79.73 96.18 79.06 97.25 C78.46 98.18 77.85 99.12 77.22 100.08 C75.61 103.93 75.95 105.97 77 110 C78.26 112.53 79.53 114.85 81 117.25 C85.09 124.19 88.63 131.3 91.99 138.62 C93.81 142.56 95.71 146.3 98 150 C99.62 152.88 101.19 155.78 102.75 158.69 C103.17 159.46 103.6 160.23 104.04 161.03 C104.43 161.76 104.83 162.5 105.23 163.26 C105.6 163.93 105.96 164.6 106.33 165.29 C106.55 165.86 106.77 166.42 107 167 C106.67 167.66 106.34 168.32 106 169 C93.79 169 81.58 169 69 169 C67.31 165.76 65.62 162.52 63.88 159.19 C60.86 153.41 57.84 147.64 54.69 141.94 C46 126.13 46 126.13 46 123 C40.55 123.99 40.55 123.99 35 125 C34.96 126.95 34.96 126.95 34.92 128.93 C34.83 133.73 34.73 138.52 34.63 143.32 C34.58 145.4 34.54 147.47 34.5 149.55 C34.45 152.53 34.38 155.52 34.32 158.5 C34.3 159.43 34.28 160.37 34.27 161.33 C34.25 162.19 34.23 163.05 34.21 163.94 C34.18 165.08 34.18 165.08 34.16 166.25 C34 168 34 168 33 169 C22.11 169 11.22 169 0 169 C0 113.23 0 57.46 0 0 Z " fill="#FEFEFE" transform="translate(692,41)"/>
<path d="M0 0 C12.64 10.74 18.69 26.72 20.07 43 C21.17 63.92 19.85 87.56 5.23 104.02 C-9.64 116.6 -25.75 119.39 -44.77 118.02 C-59.09 116.48 -69.98 111.65 -79.77 101.02 C-90.15 87.23 -92.2 71.14 -92.15 54.4 C-92.15 53.69 -92.15 52.98 -92.15 52.24 C-92.08 34 -89.15 16.71 -75.95 2.99 C-57.4 -13.79 -20.18 -14.38 0 0 Z M-50.77 24.02 C-58.12 33.15 -57.95 43.8 -57.96 54.96 C-57.97 56.01 -57.99 57.05 -58 58.13 C-58.01 66.8 -57.38 77.06 -51.16 83.76 C-45.43 88.9 -41.05 89.27 -33.46 89.18 C-27.79 88.85 -23.73 87.09 -19.77 83.02 C-14.54 73.8 -14.57 64.64 -14.52 54.27 C-14.5 53.05 -14.48 51.82 -14.46 50.56 C-14.42 40.91 -15.26 31.62 -21.77 24.02 C-27.42 19.26 -33 19.43 -40.23 19.64 C-44.99 20.15 -47.13 20.94 -50.77 24.02 Z " fill="#FEFEFE" transform="translate(542.7734375,94.9765625)"/>
<path d="M0 0 C6.27 0 12.54 0 19 0 C19 24.42 19 48.84 19 74 C46.39 74 73.78 74 102 74 C102 49.58 102 25.16 102 0 C108.27 0 114.54 0 121 0 C122.85 1.85 122.13 4.9 122.13 7.38 C122.13 8.39 122.13 8.39 122.13 9.42 C122.14 11.69 122.13 13.97 122.13 16.24 C122.13 17.87 122.13 19.49 122.13 21.12 C122.14 25.54 122.14 29.96 122.13 34.39 C122.13 39.01 122.13 43.62 122.14 48.24 C122.14 56 122.14 63.76 122.13 71.52 C122.12 80.5 122.13 89.48 122.13 98.46 C122.14 106.16 122.14 113.86 122.13 121.56 C122.13 126.16 122.13 130.76 122.14 135.37 C122.14 139.69 122.14 144.02 122.13 148.35 C122.13 149.94 122.13 151.53 122.13 153.13 C122.14 155.29 122.13 157.46 122.13 159.62 C122.13 161.44 122.13 161.44 122.13 163.3 C122 166 122 166 121 167 C114.73 167 108.46 167 102 167 C102 142.58 102 118.16 102 93 C74.61 93 47.22 93 19 93 C19 117.42 19 141.84 19 167 C12.73 167 6.46 167 0 167 C-1.85 165.15 -1.13 162.1 -1.13 159.62 C-1.13 158.95 -1.13 158.27 -1.13 157.58 C-1.14 155.31 -1.13 153.03 -1.13 150.76 C-1.13 149.13 -1.13 147.51 -1.13 145.88 C-1.14 141.46 -1.14 137.04 -1.13 132.61 C-1.13 127.99 -1.13 123.38 -1.14 118.76 C-1.14 111 -1.14 103.24 -1.13 95.48 C-1.12 86.5 -1.13 77.52 -1.13 68.54 C-1.14 60.84 -1.14 53.14 -1.13 45.44 C-1.13 40.84 -1.13 36.24 -1.14 31.63 C-1.14 27.31 -1.14 22.98 -1.13 18.65 C-1.13 17.06 -1.13 15.47 -1.13 13.87 C-1.14 11.71 -1.13 9.54 -1.13 7.38 C-1.13 6.16 -1.13 4.95 -1.13 3.7 C-1 1 -1 1 0 0 Z " fill="#FEFEFE" transform="translate(819,43)"/>
<path d="M0 0 C0.5 0.5 0.5 0.5 1 1 C0.93 3.87 0.81 6.7 0.62 9.56 C0.58 10.35 0.54 11.14 0.49 11.95 C0.19 17 -0.32 21.98 -1 27 C-1.93 26.95 -2.86 26.91 -3.82 26.86 C-7.34 26.7 -10.86 26.55 -14.39 26.41 C-15.9 26.35 -17.41 26.28 -18.92 26.2 C-34.54 25.13 -34.54 25.13 -48.83 30.28 C-56.6 38.71 -55.51 54 -55.14 64.77 C-54.64 72.78 -53.75 81.02 -48 87 C-36.72 92.74 -24.58 91.06 -12.31 90.5 C-11.22 90.45 -10.12 90.4 -8.99 90.36 C-6.33 90.24 -3.66 90.12 -1 90 C-0.66 93.02 -0.33 96.04 0 99.06 C0.1 99.91 0.19 100.76 0.29 101.63 C0.81 106.45 1.11 111.15 1 116 C-5.44 118.73 -11.51 119.88 -18.44 120.69 C-19.5 120.81 -20.55 120.94 -21.64 121.07 C-37.88 122.88 -56.58 124.39 -70.79 114.79 C-82.64 105.21 -88.07 91.44 -89.81 76.55 C-90.2 71.31 -90.19 66.06 -90.19 60.81 C-90.19 58.77 -90.21 56.73 -90.22 54.68 C-90.3 37.93 -87.87 19.87 -76.15 6.96 C-71.59 2.69 -66.8 0.21 -61 -2 C-60.13 -2.39 -59.27 -2.78 -58.38 -3.19 C-40.99 -9.13 -17.05 -4.83 0 0 Z " fill="#FEFEFE" transform="translate(669,91)"/>
<path d="M0 0 C0.69 0.63 1.38 1.25 2.09 1.89 C15.52 15.37 16.21 37.08 16.18 55.02 C16.11 62.51 15.46 69.64 14 77 C13.81 78.02 13.61 79.04 13.41 80.1 C10.85 91.83 6.29 102.23 -4 109 C-14.8 114.56 -24.34 115.18 -36.31 115.19 C-37.59 115.2 -38.87 115.21 -40.19 115.22 C-52.63 115.24 -64.46 113.66 -74.18 105.07 C-89.21 88.46 -89.96 64.47 -89.19 43.18 C-88.25 27.49 -84.93 11.07 -73 0 C-72.41 -0.55 -71.82 -1.1 -71.22 -1.66 C-53.7 -15.95 -16.57 -15.4 0 0 Z M-62 16 C-72.66 31.97 -70.01 56.94 -67 75 C-65.32 83.26 -63.39 89.95 -56.06 94.81 C-50.04 98.51 -43.6 98.21 -36.75 98.25 C-35.85 98.27 -34.94 98.29 -34.01 98.31 C-26.59 98.36 -19.66 97.3 -13.62 92.69 C-3.99 82.82 -4.49 68.25 -4.55 55.37 C-4.56 52.64 -4.53 49.91 -4.5 47.18 C-4.46 35.42 -4.67 22.28 -13 13 C-20.5 7.64 -27.23 6.61 -36.19 6.56 C-37.18 6.53 -38.17 6.5 -39.19 6.46 C-47.89 6.4 -56.42 8.86 -62 16 Z " fill="#FEFEFE" transform="translate(1059,97)"/>
<path d="M0 0 C1.13 0.04 2.25 0.09 3.41 0.13 C28.77 1.32 28.77 1.32 35.62 4.75 C35.62 10.03 35.62 15.31 35.62 20.75 C32.4 21.83 31.01 21.68 27.71 21.19 C26.71 21.05 25.72 20.91 24.69 20.77 C23.62 20.62 22.54 20.47 21.44 20.31 C12.51 19.16 3.69 18.4 -5.31 18.31 C-6.28 18.29 -7.24 18.27 -8.23 18.25 C-14.27 18.26 -18.88 19.38 -24.38 21.89 C-26.38 22.75 -26.38 22.75 -28.38 22.75 C-28.84 23.68 -28.84 23.68 -29.31 24.62 C-30 26 -30.69 27.38 -31.38 28.75 C-31.85 34.03 -32.24 38.99 -29.88 43.81 C-21.93 49.97 -10.39 50.92 -0.77 52.91 C0.23 53.12 1.23 53.33 2.26 53.55 C4.25 53.96 6.24 54.37 8.23 54.77 C19.84 57.21 28.78 60.73 36.5 70 C41.38 81.93 40.82 95.74 36.62 107.75 C35.46 110.13 34.37 111.73 32.62 113.75 C31.96 113.75 31.31 113.75 30.62 113.75 C30.13 115.24 30.13 115.24 29.62 116.75 C18.54 124.7 6.81 125.94 -6.4 125.94 C-8.64 125.94 -10.88 125.96 -13.13 125.97 C-25.69 126.02 -38.25 125.29 -50.38 121.75 C-50.4 119.29 -50.42 116.83 -50.44 114.38 C-50.45 113.33 -50.45 113.33 -50.46 112.26 C-50.49 106.98 -50.49 106.98 -49.38 104.75 C-43.9 105.17 -38.43 105.61 -32.98 106.26 C-8.42 109.64 -8.42 109.64 14.62 102.75 C17.93 99.33 19.62 95.33 19.63 90.54 C19.26 85.97 18.68 82.32 15.62 78.75 C9.65 74.63 3.77 73.5 -3.31 72.25 C-5.56 71.82 -7.8 71.4 -10.04 70.96 C-11.12 70.76 -12.21 70.55 -13.33 70.34 C-39.66 65.24 -39.66 65.24 -47.44 56.94 C-53.48 47 -54.23 34.86 -51.65 23.57 C-49.77 18.54 -47.17 14.55 -43.38 10.75 C-42.71 10.75 -42.06 10.75 -41.38 10.75 C-41.38 10.09 -41.38 9.43 -41.38 8.75 C-27.35 1.34 -15.82 -0.65 0 0 Z " fill="#FEFEFE" transform="translate(1148.375,86.25)"/>
<path d="M0 0 C5.94 0 11.88 0 18 0 C18.33 11.88 18.66 23.76 19 36 C31.54 36.33 44.08 36.66 57 37 C57 42.28 57 47.56 57 53 C56 54 56 54 52.4 54.11 C50.8 54.11 49.19 54.11 47.59 54.1 C46.75 54.1 45.91 54.09 45.04 54.09 C42.34 54.09 39.64 54.08 36.94 54.06 C35.11 54.06 33.29 54.05 31.46 54.05 C26.97 54.04 22.49 54.02 18 54 C18.09 61.94 18.18 69.88 18.29 77.81 C18.34 81.5 18.38 85.19 18.42 88.88 C18.46 92.45 18.51 96.02 18.56 99.59 C18.59 101.59 18.6 103.59 18.62 105.58 C18.77 123.31 18.77 123.31 24 140 C27.73 142.33 31.29 142.23 35.61 142.2 C36.86 142.19 38.11 142.18 39.39 142.18 C40.69 142.16 41.98 142.14 43.31 142.12 C44.63 142.12 45.94 142.11 47.29 142.1 C50.53 142.07 53.76 142.04 57 142 C58.49 144.99 58.13 147.74 58.12 151.06 C58.13 152.97 58.13 152.97 58.13 154.91 C58 158 58 158 57 159 C42.18 161.16 24.66 163.55 10.88 156.38 C2.71 149.63 0.63 140.38 -0.37 130.28 C-1.57 116.43 -1.22 102.46 -1.14 88.57 C-1.12 84.66 -1.11 80.75 -1.1 76.84 C-1.08 69.23 -1.04 61.61 -1 54 C-2.14 54.01 -3.29 54.02 -4.46 54.04 C-5.96 54.04 -7.45 54.05 -8.94 54.06 C-9.69 54.07 -10.45 54.08 -11.22 54.09 C-13.15 54.1 -15.08 54.05 -17 54 C-18 53 -18 53 -18.1 49.4 C-18.09 47.91 -18.08 46.43 -18.06 44.94 C-18.04 42.32 -18.02 39.7 -18 37 C-10.08 36.5 -10.08 36.5 -2 36 C-1.91 32.23 -1.91 32.23 -1.82 28.38 C-1.75 25.95 -1.69 23.53 -1.63 21.1 C-1.58 19.41 -1.54 17.72 -1.5 16.03 C-1.45 13.6 -1.38 11.18 -1.32 8.75 C-1.3 7.99 -1.28 7.23 -1.27 6.45 C-1.11 1.11 -1.11 1.11 0 0 Z " fill="#FEFEFE" transform="translate(1221,52)"/>
</svg>
